#N canvas 385 107 535 591 10;
#X floatatom 95 38 5 0 0 0 - - -;
#X obj 95 88 phasor~;
#X obj 95 63 mtof;
#X obj 93 531 output~;
#X obj 93 4 notein;
#X floatatom 190 38 5 0 0 0 - - -;
#X obj 345 17 ctlin 71 1;
#X obj 348 53 nbx 5 14 -1e+37 1e+37 0 0 empty empty empty 0 -8 0 10
-262144 -1 -1 7 256;
#X obj 348 78 mtof;
#X obj 345 113 phasor~;
#X obj 339 151 expr~ $v1 > 0.5;
#X obj 92 129 expr~ $v1 > 0.5;
#X obj 107 404 nbx 5 14 -1e+37 1e+37 0 0 empty empty empty 0 -8 0 10
-262144 -1 -1 111 256;
#X obj 107 429 mtof;
#X obj 104 368 ctlin 74 1;
#X obj 200 410 nbx 5 14 -1e+37 1e+37 0 0 empty empty empty 0 -8 0 10
-262144 -1 -1 6.29921 256;
#X obj 200 435 mtof;
#X obj 84 470 bp~;
#X obj 199 352 ctlin 84 1;
#X obj 199 381 / 12.7;
#X obj 119 501 *~;
#X obj 190 68 / 127;
#X obj 253 90 nbx 5 14 -1e+37 1e+37 0 0 empty empty empty 0 -8 0 10
-262144 -1 -1 1 256;
#X obj 191 116 pack 0 50;
#X obj 215 146 line~;
#X obj 251 22 ctlin 7 1;
#X obj 89 192 expr~ $v1 && $v2;
#X obj 344 247 nbx 5 14 -1e+37 1e+37 0 0 empty empty empty 0 -8 0 10
-262144 -1 -1 66 256;
#X obj 344 272 mtof;
#X obj 341 307 phasor~;
#X obj 335 345 expr~ $v1 > 0.5;
#X obj 341 211 ctlin 91 1;
#X obj 70 283 expr~ $v1 > $v2;
#X connect 0 0 2 0;
#X connect 1 0 11 0;
#X connect 2 0 1 0;
#X connect 4 0 0 0;
#X connect 4 1 5 0;
#X connect 5 0 21 0;
#X connect 6 0 7 0;
#X connect 7 0 8 0;
#X connect 8 0 9 0;
#X connect 9 0 10 0;
#X connect 10 0 26 1;
#X connect 11 0 26 0;
#X connect 12 0 13 0;
#X connect 13 0 17 1;
#X connect 14 0 12 0;
#X connect 15 0 16 0;
#X connect 16 0 17 2;
#X connect 17 0 20 0;
#X connect 18 0 19 0;
#X connect 19 0 15 0;
#X connect 20 0 3 0;
#X connect 20 0 3 1;
#X connect 21 0 23 0;
#X connect 22 0 23 1;
#X connect 23 0 24 0;
#X connect 24 0 20 1;
#X connect 25 0 22 0;
#X connect 26 0 32 0;
#X connect 27 0 28 0;
#X connect 28 0 29 0;
#X connect 29 0 30 0;
#X connect 30 0 32 1;
#X connect 31 0 27 0;
#X connect 32 0 17 0;
